<svg width="172" height="80" viewBox="0 0 172 80" fill="none" xmlns="http://www.w3.org/2000/svg">
<g filter="url(#filter0_d_2491_143656)">
<rect x="20" y="20" width="132" height="40" rx="20" fill="#262626" shape-rendering="crispEdges"/>
<path d="M54.3688 36.3805C54.2414 36.4828 51.9927 37.7955 51.9927 40.7143C51.9927 44.0904 54.8541 45.2848 54.9397 45.3144C54.9265 45.3872 54.4851 46.9501 53.4311 48.5426C52.4912 49.944 51.5096 51.3431 50.0164 51.3431C48.5231 51.3431 48.1389 50.4445 46.415 50.4445C44.7351 50.4445 44.1378 51.3727 42.772 51.3727C41.4061 51.3727 40.453 50.076 39.3573 48.4835C38.088 46.6134 37.0625 43.7082 37.0625 40.9509C37.0625 36.5283 39.8382 34.1828 42.5699 34.1828C44.0215 34.1828 45.2314 35.1702 46.1427 35.1702C47.0101 35.1702 48.3628 34.1237 50.0142 34.1237C50.64 34.1237 52.8887 34.1828 54.3688 36.3805ZM49.2302 32.2513C49.9132 31.4119 50.3963 30.2471 50.3963 29.0823C50.3963 28.9207 50.3831 28.7569 50.3546 28.625C49.2434 28.6682 47.9215 29.3917 47.1243 30.3494C46.4985 31.0865 45.9144 32.2513 45.9144 33.4321C45.9144 33.6095 45.9429 33.787 45.9561 33.8438C46.0264 33.8575 46.1405 33.8734 46.2547 33.8734C47.2517 33.8734 48.5056 33.1818 49.2302 32.2513Z" fill="white"/>
<path d="M63.72 34.5V28.78H65.232C67.2 28.78 68.128 29.996 68.128 31.588V31.66C68.128 33.244 67.216 34.5 65.216 34.5H63.72ZM64.416 33.932H65.2C66.672 33.932 67.408 33.052 67.408 31.652V31.588C67.408 30.268 66.768 29.34 65.192 29.34H64.416V33.932ZM70.8183 34.572C69.6263 34.572 68.7703 33.668 68.7703 32.444V32.38C68.7703 31.124 69.6423 30.244 70.8263 30.244C72.0103 30.244 72.8823 31.116 72.8823 32.372V32.436C72.8823 33.7 72.0103 34.572 70.8183 34.572ZM70.8263 34.02C71.6663 34.02 72.1943 33.388 72.1943 32.444V32.388C72.1943 31.42 71.6583 30.796 70.8263 30.796C69.9863 30.796 69.4583 31.42 69.4583 32.38V32.444C69.4583 33.396 69.9783 34.02 70.8263 34.02ZM74.5123 34.5L73.2243 30.316H73.9443L74.9203 33.684L75.9363 30.316H76.5123L77.4643 33.684L78.4483 30.316H79.1283L77.8243 34.5H77.0883L76.2163 31.364L75.2403 34.5H74.5123ZM79.8639 34.5V30.316H80.5279V30.98C80.7199 30.588 81.1839 30.244 81.8719 30.244C82.7359 30.244 83.3439 30.716 83.3439 31.932V34.5H82.6799V31.884C82.6799 31.148 82.3679 30.82 81.6959 30.82C81.0799 30.82 80.5279 31.212 80.5279 31.964V34.5H79.8639ZM84.5011 34.5V28.316H85.1731V34.5H84.5011ZM88.108 34.572C86.916 34.572 86.06 33.668 86.06 32.444V32.38C86.06 31.124 86.932 30.244 88.116 30.244C89.3 30.244 90.172 31.116 90.172 32.372V32.436C90.172 33.7 89.3 34.572 88.108 34.572ZM88.116 34.02C88.956 34.02 89.484 33.388 89.484 32.444V32.388C89.484 31.42 88.948 30.796 88.116 30.796C87.276 30.796 86.748 31.42 86.748 32.38V32.444C86.748 33.396 87.268 34.02 88.116 34.02ZM92.1521 34.044C92.8561 34.044 93.3921 33.684 93.3921 33.036V32.516H92.8161C91.9761 32.516 91.3601 32.724 91.3601 33.34C91.3601 33.772 91.5681 34.044 92.1521 34.044ZM92.0881 34.572C91.3121 34.572 90.6961 34.196 90.6961 33.34C90.6961 32.372 91.7201 32.044 92.7921 32.044H93.3921V31.74C93.3921 31.076 93.1361 30.796 92.4961 30.796C91.9201 30.796 91.6001 31.036 91.5361 31.548H90.8721C90.9601 30.596 91.7201 30.244 92.5281 30.244C93.3281 30.244 94.0561 30.572 94.0561 31.74V34.5H93.3921V33.972C93.0801 34.364 92.7041 34.572 92.0881 34.572ZM96.8484 34.02C97.6244 34.02 98.2324 33.508 98.2324 32.436V32.372C98.2324 31.3 97.7204 30.796 96.9044 30.796C96.0724 30.796 95.5764 31.38 95.5764 32.396V32.46C95.5764 33.516 96.1444 34.02 96.8484 34.02ZM96.7764 34.572C95.6804 34.572 94.8884 33.796 94.8884 32.492V32.428C94.8884 31.148 95.6884 30.244 96.8404 30.244C97.5364 30.244 97.9684 30.58 98.2084 30.988V28.316H98.8724V34.5H98.2084V33.78C97.9684 34.188 97.3844 34.572 96.7764 34.572ZM103.749 34.572C102.557 34.572 101.701 33.668 101.701 32.444V32.38C101.701 31.124 102.573 30.244 103.757 30.244C104.941 30.244 105.813 31.116 105.813 32.372V32.436C105.813 33.7 104.941 34.572 103.749 34.572ZM103.757 34.02C104.597 34.02 105.125 33.388 105.125 32.444V32.388C105.125 31.42 104.589 30.796 103.757 30.796C102.917 30.796 102.389 31.42 102.389 32.38V32.444C102.389 33.396 102.909 34.02 103.757 34.02ZM106.681 34.5V30.316H107.345V30.98C107.537 30.588 108.001 30.244 108.689 30.244C109.553 30.244 110.161 30.716 110.161 31.932V34.5H109.497V31.884C109.497 31.148 109.185 30.82 108.513 30.82C107.897 30.82 107.345 31.212 107.345 31.964V34.5H106.681ZM114.532 34.556C113.772 34.556 113.404 34.108 113.404 33.452V30.876H112.804V30.316H113.404V29.364H114.068V30.316H115.044V30.876H114.068V33.388C114.068 33.796 114.252 33.996 114.588 33.996C114.796 33.996 114.956 33.964 115.1 33.908V34.468C114.964 34.516 114.804 34.556 114.532 34.556ZM115.944 34.5V28.316H116.608V30.98C116.8 30.588 117.264 30.244 117.952 30.244C118.816 30.244 119.424 30.716 119.424 31.932V34.5H118.76V31.884C118.76 31.148 118.448 30.82 117.776 30.82C117.16 30.82 116.608 31.212 116.608 31.964V34.5H115.944ZM122.277 34.572C121.093 34.572 120.253 33.74 120.253 32.452V32.388C120.253 31.124 121.061 30.244 122.213 30.244C123.181 30.244 124.093 30.828 124.093 32.324V32.54H120.941C120.973 33.492 121.429 34.02 122.285 34.02C122.933 34.02 123.309 33.78 123.397 33.292H124.061C123.917 34.132 123.221 34.572 122.277 34.572ZM120.965 32.004H123.413C123.349 31.14 122.901 30.796 122.213 30.796C121.533 30.796 121.077 31.26 120.965 32.004Z" fill="white"/>
<path d="M67.69 40.498L65.954 45.65H69.426L67.69 40.498ZM63.504 49.5L66.948 39.49H68.544L71.932 49.5H70.728L69.748 46.616H65.618L64.652 49.5H63.504ZM76.8576 48.66C78.3136 48.66 79.0976 47.68 79.0976 45.902V45.79C79.0976 43.942 78.0756 43.018 76.8436 43.018C75.4856 43.018 74.4496 43.914 74.4496 45.79V45.902C74.4496 47.778 75.4296 48.66 76.8576 48.66ZM73.3296 52.048V42.178H74.4916V43.41C74.9116 42.696 75.9056 42.052 76.9696 42.052C78.8876 42.052 80.3016 43.452 80.3016 45.734V45.846C80.3016 48.086 78.9856 49.626 76.9696 49.626C75.7656 49.626 74.9116 49.024 74.4916 48.296V52.048H73.3296ZM85.3549 48.66C86.8109 48.66 87.5949 47.68 87.5949 45.902V45.79C87.5949 43.942 86.5729 43.018 85.3409 43.018C83.9829 43.018 82.9469 43.914 82.9469 45.79V45.902C82.9469 47.778 83.9269 48.66 85.3549 48.66ZM81.8269 52.048V42.178H82.9889V43.41C83.4089 42.696 84.4029 42.052 85.4669 42.052C87.3849 42.052 88.7989 43.452 88.7989 45.734V45.846C88.7989 48.086 87.4829 49.626 85.4669 49.626C84.2629 49.626 83.4089 49.024 82.9889 48.296V52.048H81.8269ZM97.0674 49.626C94.3934 49.626 93.4274 48.156 93.2454 46.448H94.4214C94.5754 47.638 95.0514 48.646 97.0674 48.646C98.3554 48.646 99.3494 47.89 99.3494 46.756C99.3494 45.622 98.8314 45.146 96.9274 44.838C94.8274 44.516 93.5814 43.858 93.5814 42.08C93.5814 40.54 94.9114 39.364 96.8014 39.364C98.8034 39.364 100.049 40.344 100.245 42.122H99.1534C98.9154 40.862 98.1874 40.344 96.8014 40.344C95.4294 40.344 94.7154 41.03 94.7154 41.968C94.7154 42.948 95.0794 43.452 97.1234 43.76C99.3494 44.11 100.525 44.782 100.525 46.672C100.525 48.352 99.0554 49.626 97.0674 49.626ZM104.473 49.598C103.143 49.598 102.499 48.814 102.499 47.666V43.158H101.449V42.178H102.499V40.512H103.661V42.178H105.369V43.158H103.661V47.554C103.661 48.268 103.983 48.618 104.571 48.618C104.935 48.618 105.215 48.562 105.467 48.464V49.444C105.229 49.528 104.949 49.598 104.473 49.598ZM109.981 49.626C107.895 49.626 106.397 48.044 106.397 45.902V45.79C106.397 43.592 107.923 42.052 109.995 42.052C112.067 42.052 113.593 43.578 113.593 45.776V45.888C113.593 48.1 112.067 49.626 109.981 49.626ZM109.995 48.66C111.465 48.66 112.389 47.554 112.389 45.902V45.804C112.389 44.11 111.451 43.018 109.995 43.018C108.525 43.018 107.601 44.11 107.601 45.79V45.902C107.601 47.568 108.511 48.66 109.995 48.66ZM115.112 49.5V42.178H116.274V43.494C116.736 42.668 117.366 42.094 118.682 42.052V43.144C117.212 43.214 116.274 43.676 116.274 45.482V49.5H115.112ZM122.887 49.626C120.815 49.626 119.345 48.17 119.345 45.916V45.804C119.345 43.592 120.759 42.052 122.775 42.052C124.469 42.052 126.065 43.074 126.065 45.692V46.07L120.549 46.07C120.605 47.736 121.403 48.66 122.901 48.66C124.035 48.66 124.693 48.24 124.847 47.386H126.009C125.757 48.856 124.539 49.626 122.887 49.626ZM120.591 45.132L124.875 45.132C124.763 43.62 123.979 43.018 122.775 43.018C121.585 43.018 120.787 43.83 120.591 45.132Z" fill="white"/>
</g>
<defs>
<filter id="filter0_d_2491_143656" x="0" y="0" width="172" height="80" filterUnits="userSpaceOnUse" color-interpolation-filters="sRGB">
<feFlood flood-opacity="0" result="BackgroundImageFix"/>
<feColorMatrix in="SourceAlpha" type="matrix" values="0 0 0 0 0 0 0 0 0 0 0 0 0 0 0 0 0 0 127 0" result="hardAlpha"/>
<feOffset/>
<feGaussianBlur stdDeviation="10"/>
<feComposite in2="hardAlpha" operator="out"/>
<feColorMatrix type="matrix" values="0 0 0 0 0.14902 0 0 0 0 0.14902 0 0 0 0 0.14902 0 0 0 0.1 0"/>
<feBlend mode="normal" in2="BackgroundImageFix" result="effect1_dropShadow_2491_143656"/>
<feBlend mode="normal" in="SourceGraphic" in2="effect1_dropShadow_2491_143656" result="shape"/>
</filter>
</defs>
</svg>
