<svg width="172" height="80" viewBox="0 0 172 80" fill="none" xmlns="http://www.w3.org/2000/svg">
<g filter="url(#filter0_d_2491_143662)">
<rect x="20" y="20" width="132" height="40" rx="20" fill="#262626" shape-rendering="crispEdges"/>
<path d="M45.0904 39.5078L36.082 49.1766C36.1832 49.5439 36.365 49.8826 36.6135 50.1669C36.862 50.4511 37.1707 50.6734 37.5159 50.8168C37.8612 50.9601 38.2338 51.0207 38.6054 50.9938C38.977 50.967 39.3377 50.8535 39.6599 50.662L49.7959 44.7479L45.0904 39.5078Z" fill="#EA4335"/>
<path d="M54.1999 37.8649L49.8166 35.293L44.8828 39.7285L49.8367 44.7348L54.1865 42.1904C54.5719 41.9837 54.8947 41.6729 55.1199 41.2916C55.3451 40.9104 55.4642 40.4733 55.4642 40.0276C55.4642 39.582 55.3451 39.1449 55.1199 38.7637C54.8947 38.3824 54.5719 38.0716 54.1865 37.8649H54.1999Z" fill="#FBBC04"/>
<path d="M36.0806 30.8301C36.0261 31.0363 35.999 31.2491 36 31.4627V48.5447C36.0006 48.7582 36.0276 48.9708 36.0806 49.1774L45.3977 39.7562L36.0806 30.8301Z" fill="#4285F4"/>
<path d="M45.1575 40.0029L49.8161 35.2923L39.6934 29.3507C39.3126 29.1222 38.8795 29.0012 38.4382 29C37.9052 28.9989 37.3864 29.1764 36.9611 29.5054C36.5357 29.8344 36.227 30.2969 36.082 30.8224L45.1575 40.0029Z" fill="#34A853"/>
<path d="M66.208 34.572C64.448 34.572 63.44 33.348 63.44 31.676V31.612C63.44 29.94 64.568 28.692 66.208 28.692C67.344 28.692 68.36 29.22 68.536 30.508H67.84C67.68 29.596 67.056 29.244 66.224 29.244C64.912 29.244 64.16 30.204 64.16 31.604V31.668C64.16 33.084 64.864 34.012 66.208 34.012C67.448 34.012 67.984 33.204 68.008 32.188H66.336V31.612H68.688V32.036C68.688 33.692 67.672 34.572 66.208 34.572ZM71.3568 34.572C70.1728 34.572 69.3328 33.74 69.3328 32.452V32.388C69.3328 31.124 70.1408 30.244 71.2928 30.244C72.2608 30.244 73.1728 30.828 73.1728 32.324V32.54H70.0208C70.0528 33.492 70.5088 34.02 71.3648 34.02C72.0128 34.02 72.3888 33.78 72.4768 33.292H73.1408C72.9968 34.132 72.3008 34.572 71.3568 34.572ZM70.0448 32.004H72.4928C72.4288 31.14 71.9808 30.796 71.2928 30.796C70.6128 30.796 70.1568 31.26 70.0448 32.004ZM75.3037 34.556C74.5437 34.556 74.1757 34.108 74.1757 33.452V30.876H73.5757V30.316H74.1757V29.364H74.8397V30.316L75.8157 30.316V30.876H74.8397V33.388C74.8397 33.796 75.0237 33.996 75.3597 33.996C75.5677 33.996 75.7277 33.964 75.8717 33.908V34.468C75.7357 34.516 75.5757 34.556 75.3037 34.556ZM79.0086 29.444C78.7686 29.444 78.5686 29.244 78.5686 29.004C78.5686 28.764 78.7686 28.564 79.0086 28.564C79.2486 28.564 79.4486 28.764 79.4486 29.004C79.4486 29.244 79.2486 29.444 79.0086 29.444ZM78.6886 34.5V30.316H79.3526V34.5H78.6886ZM81.8237 34.556C81.0637 34.556 80.6957 34.108 80.6957 33.452V30.876H80.0957V30.316H80.6957V29.364H81.3597V30.316H82.3357V30.876H81.3597V33.388C81.3597 33.796 81.5437 33.996 81.8797 33.996C82.0877 33.996 82.2477 33.964 82.3917 33.908V34.468C82.2557 34.516 82.0957 34.556 81.8237 34.556ZM86.9286 34.572C85.7366 34.572 84.8806 33.668 84.8806 32.444V32.38C84.8806 31.124 85.7526 30.244 86.9366 30.244C88.1206 30.244 88.9926 31.116 88.9926 32.372V32.436C88.9926 33.7 88.1206 34.572 86.9286 34.572ZM86.9366 34.02C87.7766 34.02 88.3046 33.388 88.3046 32.444V32.388C88.3046 31.42 87.7686 30.796 86.9366 30.796C86.0966 30.796 85.5686 31.42 85.5686 32.38V32.444C85.5686 33.396 86.0886 34.02 86.9366 34.02ZM89.8607 34.5V30.316H90.5247V30.98C90.7167 30.588 91.1807 30.244 91.8687 30.244C92.7327 30.244 93.3407 30.716 93.3407 31.932V34.5H92.6767V31.884C92.6767 31.148 92.3647 30.82 91.6927 30.82C91.0767 30.82 90.5247 31.212 90.5247 31.964V34.5H89.8607Z" fill="white"/>
<path d="M68.614 49.626C65.534 49.626 63.77 47.484 63.77 44.558V44.446C63.77 41.52 65.744 39.336 68.614 39.336C70.602 39.336 72.38 40.26 72.688 42.514H71.47C71.19 40.918 70.098 40.302 68.642 40.302C66.346 40.302 65.03 41.982 65.03 44.432V44.544C65.03 47.022 66.262 48.646 68.614 48.646C70.784 48.646 71.722 47.232 71.764 45.454H68.838V44.446H72.954V45.188C72.954 48.086 71.176 49.626 68.614 49.626ZM77.6664 49.626C75.5804 49.626 74.0824 48.044 74.0824 45.902V45.79C74.0824 43.592 75.6084 42.052 77.6804 42.052C79.7524 42.052 81.2784 43.578 81.2784 45.776V45.888C81.2784 48.1 79.7524 49.626 77.6664 49.626ZM77.6804 48.66C79.1504 48.66 80.0744 47.554 80.0744 45.902V45.804C80.0744 44.11 79.1364 43.018 77.6804 43.018C76.2104 43.018 75.2864 44.11 75.2864 45.79V45.902C75.2864 47.568 76.1964 48.66 77.6804 48.66ZM85.8356 49.626C83.7496 49.626 82.2516 48.044 82.2516 45.902V45.79C82.2516 43.592 83.7776 42.052 85.8496 42.052C87.9216 42.052 89.4476 43.578 89.4476 45.776V45.888C89.4476 48.1 87.9216 49.626 85.8356 49.626ZM85.8496 48.66C87.3196 48.66 88.2436 47.554 88.2436 45.902V45.804C88.2436 44.11 87.3056 43.018 85.8496 43.018C84.3796 43.018 83.4556 44.11 83.4556 45.79V45.902C83.4556 47.568 84.3656 48.66 85.8496 48.66ZM93.8789 48.296C95.2369 48.296 96.2729 47.344 96.2729 45.706V45.608C96.2729 43.97 95.3769 43.018 93.9489 43.018C92.4929 43.018 91.6249 44.096 91.6249 45.636V45.748C91.6249 47.344 92.6469 48.296 93.8789 48.296ZM93.8929 52.174C91.7229 52.174 90.7709 51.152 90.5749 49.92L91.7649 49.92C91.9329 50.76 92.6329 51.194 93.8789 51.194C95.3209 51.194 96.2309 50.508 96.2309 48.94V47.876C95.8109 48.59 94.8169 49.262 93.7529 49.262C91.8349 49.262 90.4209 47.806 90.4209 45.79V45.692C90.4209 43.704 91.8209 42.052 93.8369 42.052C95.0549 42.052 95.8109 42.64 96.2309 43.354V42.178H97.3929V49.01C97.3789 51.138 95.9369 52.174 93.8929 52.174ZM99.4922 49.5V38.678H100.668V49.5H99.4922ZM105.762 49.626C103.69 49.626 102.22 48.17 102.22 45.916V45.804C102.22 43.592 103.634 42.052 105.65 42.052C107.344 42.052 108.94 43.074 108.94 45.692V46.07H103.424C103.48 47.736 104.278 48.66 105.776 48.66C106.91 48.66 107.568 48.24 107.722 47.386H108.884C108.632 48.856 107.414 49.626 105.762 49.626ZM103.466 45.132H107.75C107.638 43.62 106.854 43.018 105.65 43.018C104.46 43.018 103.662 43.83 103.466 45.132ZM113.952 49.5V39.49H116.794C118.712 39.49 120.294 40.33 120.294 42.416V42.472C120.294 44.6 118.698 45.426 116.794 45.426H115.17V49.5H113.952ZM115.17 44.46H116.878C118.306 44.46 119.076 43.76 119.076 42.472V42.416C119.076 41.002 118.236 40.47 116.878 40.47H115.17V44.46ZM121.751 49.5V38.678H122.927V49.5H121.751ZM126.971 48.702C128.203 48.702 129.141 48.072 129.141 46.938V46.028H128.133C126.663 46.028 125.585 46.392 125.585 47.47C125.585 48.226 125.949 48.702 126.971 48.702ZM126.859 49.626C125.501 49.626 124.423 48.968 124.423 47.47C124.423 45.776 126.215 45.202 128.091 45.202H129.141V44.67C129.141 43.508 128.693 43.018 127.573 43.018C126.565 43.018 126.005 43.438 125.893 44.334H124.731C124.885 42.668 126.215 42.052 127.629 42.052C129.029 42.052 130.303 42.626 130.303 44.67V49.5H129.141V48.576C128.595 49.262 127.937 49.626 126.859 49.626ZM132.759 52.048L134.145 48.744L131.275 42.178H132.521L134.761 47.428L136.791 42.178H137.981L133.935 52.048H132.759Z" fill="white"/>
</g>
<defs>
<filter id="filter0_d_2491_143662" x="0" y="0" width="172" height="80" filterUnits="userSpaceOnUse" color-interpolation-filters="sRGB">
<feFlood flood-opacity="0" result="BackgroundImageFix"/>
<feColorMatrix in="SourceAlpha" type="matrix" values="0 0 0 0 0 0 0 0 0 0 0 0 0 0 0 0 0 0 127 0" result="hardAlpha"/>
<feOffset/>
<feGaussianBlur stdDeviation="10"/>
<feComposite in2="hardAlpha" operator="out"/>
<feColorMatrix type="matrix" values="0 0 0 0 0.14902 0 0 0 0 0.14902 0 0 0 0 0.14902 0 0 0 0.1 0"/>
<feBlend mode="normal" in2="BackgroundImageFix" result="effect1_dropShadow_2491_143662"/>
<feBlend mode="normal" in="SourceGraphic" in2="effect1_dropShadow_2491_143662" result="shape"/>
</filter>
</defs>
</svg>
