<svg width="138" height="22" viewBox="0 0 138 22" fill="none" xmlns="http://www.w3.org/2000/svg">
<path d="M52.5798 16.4615C49.0368 16.4615 46.6186 14.9253 45.7758 12.6752C56.91 14.3761 62.1406 11.0296 62.1406 7.0786C62.1406 3.62163 58.3167 0 52.5809 0C45.3251 0.00100406 39.9268 4.66485 39.9268 10.7002C39.9268 16.7356 45.1008 21.3995 51.7926 21.3995C57.4163 21.3995 60.7905 19.6986 63.6019 17.3943L61.1836 13.1692C59.3272 14.9253 56.3471 16.4615 52.5798 16.4615ZM52.0735 4.88474C54.8293 4.88474 56.4603 5.81751 56.4603 6.97016C56.4603 8.17704 53.4802 9.49436 45.7192 8.56159C46.6186 6.36572 49.3744 4.88474 52.0735 4.88474Z" fill="black"/>
<path d="M26.7674 0.220642C23.6185 0.220642 22.1563 2.58018 20.5252 7.68279L17.8827 16.0777H17.6573L15.0147 7.68279C13.3837 2.58018 11.8659 0.220642 8.77257 0.220642C5.67928 0.220642 3.88051 2.74384 2.86794 7.51813L0 21.1251H5.90464L8.77257 6.20081H8.99793L11.8659 15.7484C13.0472 19.6441 15.1279 21.1251 17.7705 21.1251C20.4131 21.1251 22.4938 19.5889 23.6751 15.7484L26.5431 6.20081H26.7684L29.6364 21.1251H35.541L32.672 7.51813C31.6605 2.74384 29.8607 0.220642 26.7674 0.220642Z" fill="black"/>
<path d="M126.416 0.00109863C119.667 0.00109863 114.55 4.66494 114.55 10.7003C114.55 16.7357 119.667 21.3996 126.022 21.3996C129.565 21.3996 132.32 19.4788 133.051 18.1073H133.108V21.1255H137.887L138 10.9202C138.056 4.39084 133.502 0.00109863 126.416 0.00109863ZM126.36 16.4616C122.705 16.4616 120.061 13.9374 120.061 10.7003C120.061 7.46325 122.704 4.93905 126.36 4.93905C129.959 4.93905 132.659 7.40803 132.659 10.7003C132.658 13.9384 129.959 16.4616 126.36 16.4616Z" fill="black"/>
<path d="M80.9783 16.4615C77.4353 16.4615 75.017 14.9253 74.1743 12.6752C85.3085 14.3761 90.5381 11.0296 90.5381 7.0786C90.5381 3.62163 86.7141 0 80.9783 0C73.7235 0 68.3252 4.66385 68.3252 10.6992C68.3252 16.7346 73.4992 21.3985 80.1911 21.3985C85.8148 21.3985 89.189 19.6976 92.0003 17.3933L89.5821 13.1682C87.7267 14.9253 84.7456 16.4615 80.9783 16.4615ZM80.472 4.88474C83.2278 4.88474 84.8588 5.81751 84.8588 6.97016C84.8588 8.17704 81.8787 9.49436 74.1177 8.56159C75.017 6.36572 77.7728 4.88474 80.472 4.88474Z" fill="black"/>
<path d="M97.1177 10.7001V21.1252H102.404V11.413C102.404 7.46202 104.878 5.59649 107.914 5.59649H111.345V0.494873H108.308C102.797 0.494873 97.1177 3.40262 97.1177 10.7001Z" fill="black"/>
</svg>
