<svg width="9" height="9" viewBox="0 0 9 9" fill="none" xmlns="http://www.w3.org/2000/svg">
<g clip-path="url(#clip0_2491_143859)">
<path d="M2.00988 4.38494L0.934056 6.06314C0.542008 6.78849 1.24822 7.63294 2.01186 7.33986C2.02308 7.33584 2.03496 7.33116 2.04618 7.32581L7.488 5.08486C7.62413 5.02722 7.74041 4.93004 7.8222 4.80556C7.90399 4.68107 7.94763 4.53484 7.94763 4.38527C7.94763 4.2357 7.90399 4.08947 7.8222 3.96498C7.74041 3.8405 7.62413 3.74332 7.488 3.68569L2.04618 1.44608C2.03496 1.43871 2.02308 1.43403 2.00988 1.43002C1.24888 1.13693 0.542008 1.98139 0.934056 2.7074L2.00988 4.38494ZM2.00988 4.38494H4.38593" stroke="#9298A0" stroke-width="0.548105" stroke-linecap="round" stroke-linejoin="round"/>
</g>
<defs>
<clipPath id="clip0_2491_143859">
<rect width="8.76968" height="8.76968" fill="white"/>
</clipPath>
</defs>
</svg>
