<svg width="20" height="20" viewBox="0 0 20 20" fill="none" xmlns="http://www.w3.org/2000/svg">
<rect x="0.308309" y="0.308309" width="19.1152" height="19.1152" rx="9.55758" fill="#EEFAB7"/>
<rect x="0.308309" y="0.308309" width="19.1152" height="19.1152" rx="9.55758" stroke="white" stroke-width="0.616618"/>
<path d="M5.74025 12.3423L7.50514 10.1708C7.7507 9.86382 7.93486 9.57478 8.05763 9.30365C8.18553 9.03252 8.24947 8.74349 8.24947 8.43655V8.36749C8.24947 8.06055 8.17785 7.83035 8.03461 7.67688C7.89649 7.52341 7.69698 7.44667 7.43608 7.44667C7.17007 7.44667 6.95521 7.53108 6.79151 7.6999C6.63293 7.8636 6.53829 8.13729 6.50759 8.52096H5.90139C5.92185 8.02474 6.06509 7.63595 6.3311 7.35459C6.59712 7.06811 6.96544 6.92488 7.43608 6.92488C7.90161 6.92488 8.26226 7.05277 8.51804 7.30855C8.77383 7.55922 8.90172 7.91475 8.90172 8.37516V8.4519C8.90172 8.80488 8.81731 9.14763 8.64849 9.48014C8.47968 9.80754 8.2418 10.1554 7.93486 10.5237L6.71478 11.9587H8.92474V12.4805H5.74025V12.3423ZM11.6529 12.5495C11.3562 12.5495 11.1004 12.5009 10.8855 12.4037C10.6707 12.3065 10.4916 12.1735 10.3484 12.0047C10.2103 11.8308 10.108 11.6287 10.0415 11.3985C9.97496 11.1632 9.94171 10.9125 9.94171 10.6465V9.27296C9.94171 8.88417 9.98519 8.54398 10.0722 8.25239C10.1642 7.95568 10.287 7.71013 10.4405 7.51573C10.5991 7.32134 10.7884 7.17554 11.0083 7.07835C11.2283 6.97603 11.4687 6.92488 11.7296 6.92488C12.1235 6.92488 12.4509 7.02719 12.7118 7.23182C12.9727 7.43644 13.1288 7.75617 13.1799 8.191H12.5507C12.5098 7.94545 12.4228 7.76128 12.2898 7.63851C12.1619 7.51573 11.9675 7.45435 11.7066 7.45435C11.3792 7.45435 11.1106 7.59758 10.9009 7.88406C10.6963 8.16542 10.594 8.60281 10.594 9.19622V9.64896C10.7065 9.44433 10.8651 9.28575 11.0697 9.1732C11.2743 9.05554 11.5148 8.99671 11.791 8.99671C12.0059 8.99671 12.2054 9.03508 12.3895 9.11182C12.5737 9.18343 12.7297 9.28831 12.8576 9.42643C12.9906 9.55943 13.0929 9.72314 13.1646 9.91753C13.2413 10.1068 13.2797 10.3191 13.2797 10.5544V10.9458C13.2797 11.4573 13.1313 11.8538 12.8346 12.1352C12.543 12.4114 12.1491 12.5495 11.6529 12.5495ZM11.6529 12.0354C11.9598 12.0354 12.1977 11.9408 12.3665 11.7515C12.5353 11.5622 12.6198 11.2988 12.6198 10.9611V10.5698C12.6198 10.2321 12.5353 9.97124 12.3665 9.78708C12.1977 9.5978 11.9547 9.50316 11.6375 9.50316C11.3357 9.50316 11.0851 9.59524 10.8855 9.77941C10.6912 9.96357 10.594 10.2296 10.594 10.5774V10.823C10.594 11.2476 10.6912 11.5571 10.8855 11.7515C11.0799 11.9408 11.3357 12.0354 11.6529 12.0354Z" fill="#262626"/>
</svg>
