<svg width="14" height="14" viewBox="0 0 14 14" fill="none" xmlns="http://www.w3.org/2000/svg">
<path fill-rule="evenodd" clip-rule="evenodd" d="M7.37853 1.41415L8.11872 2.08924C8.34715 2.29617 8.63033 2.40831 8.92184 2.40728H9.89134C10.2158 2.39943 10.5297 2.53878 10.7644 2.79481C10.9991 3.05083 11.1354 3.40268 11.1435 3.77331V4.20712C11.1432 4.40959 11.1831 4.60951 11.2601 4.79186C11.3371 4.9742 11.4493 5.13425 11.5882 5.25996L11.8815 5.52683C12.0213 5.65113 12.1345 5.81026 12.2123 5.99208C12.2901 6.17391 12.3305 6.37363 12.3305 6.57602C12.3305 6.77842 12.2901 6.97814 12.2123 7.15996C12.1345 7.34178 12.0213 7.50091 11.8815 7.62521L11.5882 7.89208C11.4488 8.01706 11.336 8.17649 11.2582 8.35841C11.1805 8.54034 11.1398 8.74003 11.1392 8.94249V9.37874C11.1317 9.74979 10.9956 10.1023 10.7608 10.3588C10.5261 10.6154 10.2119 10.755 9.88708 10.7472H8.92184C8.63033 10.7462 8.34715 10.8583 8.11872 11.0652L7.37853 11.7403C7.14965 11.9463 6.86677 12.0583 6.57541 12.0583C6.28406 12.0583 6.00118 11.9463 5.7723 11.7403L5.0321 11.0652C4.80396 10.8574 4.52076 10.7444 4.22899 10.7448H3.25948C2.93507 10.7526 2.62115 10.6133 2.38646 10.3572C2.15178 10.1012 2.01545 9.74936 2.00734 9.37874V8.94249C2.0073 8.74043 1.96727 8.54099 1.89026 8.35909C1.81324 8.17719 1.70122 8.01755 1.56259 7.89208L1.26929 7.62521C1.12949 7.50091 1.01637 7.34178 0.938564 7.15996C0.860757 6.97814 0.820312 6.77842 0.820312 6.57602C0.820312 6.37363 0.860757 6.17391 0.938564 5.99208C1.01637 5.81026 1.12949 5.65113 1.26929 5.52683L1.56259 5.25996C1.70201 5.13499 1.81484 4.97555 1.8926 4.79363C1.97037 4.6117 2.01106 4.41202 2.01161 4.20955V3.77331C2.01972 3.40354 2.15546 3.05244 2.38922 2.79655C2.62297 2.54066 2.9358 2.40074 3.25948 2.40728H4.22899C4.5205 2.40831 4.80368 2.29617 5.0321 2.08924L5.7723 1.41415C6.00118 1.20818 6.28406 1.09619 6.57541 1.09619C6.86677 1.09619 7.14965 1.20818 7.37853 1.41415ZM8.59872 4.58192C8.62114 4.43224 8.51798 4.29272 8.36829 4.27029C8.21861 4.24786 8.07909 4.35103 8.05666 4.50071C7.94073 5.27449 7.746 6.26895 7.44553 7.06389C7.29484 7.46256 7.1241 7.79304 6.93621 8.0192C6.74895 8.2446 6.57105 8.33692 6.39935 8.33692C6.17329 8.33692 5.93038 8.17539 5.68398 7.79055C5.44357 7.41508 5.24312 6.8906 5.08737 6.31956C5.04755 6.17354 4.89689 6.08745 4.75087 6.12728C4.60484 6.16711 4.51876 6.31776 4.55858 6.46379C4.72067 7.05807 4.93884 7.64325 5.22238 8.0861C5.49992 8.51957 5.88629 8.88503 6.39935 8.88503C6.7956 8.88503 7.11351 8.66352 7.35781 8.36945C7.60147 8.07616 7.79803 7.68154 7.95824 7.25768C8.27957 6.40754 8.48107 5.36717 8.59872 4.58192Z" fill="#BADF13"/>
</svg>
